# xmcd
#
# Track frame offsets:
#	150
#	16627
#	33669
#
# Disc length: 704 seconds
# Revision: 0
# Processed by: cddbd v1.5.2PL0 Copyright (c) Steve Scherf et al.
# Submitted via: dBpowerAMP V12.0
#
DISCID=1702be03
DTITLE=Ryan Cabrera - Sessions@AOL EP
DYEAR=2004
DGENRE=Pop
TTITLE0=True (Acoustic Version)
TTITLE1=On The Way Down (Acoustic Version)
TTITLE2=Exit To Exit (Acoustic Version)
EXTD=
EXTT0=
EXTT1=
EXTT2=
PLAYORDER=
